<mxfile host="65bd71144e">
    <diagram id="HkoN10MVfY5_M1-_J-7j" name="Страница 1">
        <mxGraphModel dx="1728" dy="863" grid="1" gridSize="10" guides="1" tooltips="1" connect="1" arrows="1" fold="1" page="1" pageScale="1" pageWidth="827" pageHeight="1169" math="0" shadow="0">
            <root>
                <mxCell id="0"/>
                <mxCell id="1" parent="0"/>
                <mxCell id="2" value="string array" style="rounded=1;whiteSpace=wrap;html=1;" parent="1" vertex="1">
                    <mxGeometry x="10" y="10" width="120" height="60" as="geometry"/>
                </mxCell>
                <mxCell id="5" value="print newarr[i];" style="rounded=1;whiteSpace=wrap;html=1;" parent="1" vertex="1">
                    <mxGeometry x="280" y="879" width="120" height="60" as="geometry"/>
                </mxCell>
                <mxCell id="12" value="fuction &quot;methodArray&quot;" style="rounded=1;whiteSpace=wrap;html=1;" vertex="1" parent="1">
                    <mxGeometry x="10" y="100" width="120" height="60" as="geometry"/>
                </mxCell>
                <mxCell id="13" value="fuction &quot;PrintArray&quot;" style="rounded=1;whiteSpace=wrap;html=1;" vertex="1" parent="1">
                    <mxGeometry x="10" y="190" width="120" height="60" as="geometry"/>
                </mxCell>
                <mxCell id="15" value="" style="endArrow=classic;html=1;exitX=0.5;exitY=1;exitDx=0;exitDy=0;" edge="1" parent="1" source="2" target="12">
                    <mxGeometry relative="1" as="geometry">
                        <mxPoint x="310" y="140" as="sourcePoint"/>
                        <mxPoint x="410" y="140" as="targetPoint"/>
                    </mxGeometry>
                </mxCell>
                <mxCell id="17" value="" style="endArrow=classic;html=1;exitX=1;exitY=0.5;exitDx=0;exitDy=0;entryX=1;entryY=0.5;entryDx=0;entryDy=0;" edge="1" parent="1" source="2" target="13">
                    <mxGeometry relative="1" as="geometry">
                        <mxPoint x="80" y="80" as="sourcePoint"/>
                        <mxPoint x="80" y="110" as="targetPoint"/>
                        <Array as="points">
                            <mxPoint x="160" y="40"/>
                            <mxPoint x="160" y="170"/>
                            <mxPoint x="160" y="220"/>
                        </Array>
                    </mxGeometry>
                </mxCell>
                <mxCell id="18" value="string array[];" style="rounded=1;whiteSpace=wrap;html=1;" vertex="1" parent="1">
                    <mxGeometry x="280" y="249" width="120" height="60" as="geometry"/>
                </mxCell>
                <mxCell id="20" value="&lt;span&gt;fuction &quot;methodArray&quot;&lt;/span&gt;" style="ellipse;whiteSpace=wrap;html=1;" vertex="1" parent="1">
                    <mxGeometry x="280" y="119" width="120" height="80" as="geometry"/>
                </mxCell>
                <mxCell id="22" value="&lt;span style=&quot;font-family: &amp;#34;helvetica&amp;#34;&quot;&gt;FOR &lt;br&gt;(i=0, i&amp;lt;array.lenght, i++)&lt;/span&gt;" style="rhombus;whiteSpace=wrap;html=1;" vertex="1" parent="1">
                    <mxGeometry x="260" y="349" width="160" height="130" as="geometry"/>
                </mxCell>
                <mxCell id="23" value="if (array [i].lenght&amp;lt;=3" style="rhombus;whiteSpace=wrap;html=1;" vertex="1" parent="1">
                    <mxGeometry x="250" y="539" width="180" height="120" as="geometry"/>
                </mxCell>
                <mxCell id="24" value="string new&amp;nbsp;&lt;br&gt;&amp;nbsp;array &quot;newarr&quot;&amp;nbsp;" style="rounded=1;whiteSpace=wrap;html=1;" vertex="1" parent="1">
                    <mxGeometry x="280" y="699" width="120" height="60" as="geometry"/>
                </mxCell>
                <mxCell id="25" value="newarr[i] = array[i];" style="rounded=1;whiteSpace=wrap;html=1;" vertex="1" parent="1">
                    <mxGeometry x="280" y="789" width="120" height="60" as="geometry"/>
                </mxCell>
                <mxCell id="26" value="" style="endArrow=classic;html=1;" edge="1" parent="1" source="20" target="18">
                    <mxGeometry relative="1" as="geometry">
                        <mxPoint x="339.76" y="219" as="sourcePoint"/>
                        <mxPoint x="339.76" y="249" as="targetPoint"/>
                        <Array as="points">
                            <mxPoint x="339.76" y="229"/>
                            <mxPoint x="339.76" y="239"/>
                        </Array>
                    </mxGeometry>
                </mxCell>
                <mxCell id="27" value="" style="endArrow=classic;html=1;exitX=0.5;exitY=1;exitDx=0;exitDy=0;" edge="1" parent="1" source="18" target="22">
                    <mxGeometry relative="1" as="geometry">
                        <mxPoint x="340" y="309" as="sourcePoint"/>
                        <mxPoint x="339.82000000000005" y="339" as="targetPoint"/>
                        <Array as="points">
                            <mxPoint x="339.76" y="319"/>
                            <mxPoint x="339.76" y="329"/>
                        </Array>
                    </mxGeometry>
                </mxCell>
                <mxCell id="29" value="" style="endArrow=classic;html=1;entryX=0;entryY=0.5;entryDx=0;entryDy=0;exitX=0;exitY=0.5;exitDx=0;exitDy=0;" edge="1" parent="1" source="22" target="23">
                    <mxGeometry relative="1" as="geometry">
                        <mxPoint x="-210" y="439" as="sourcePoint"/>
                        <mxPoint x="130" y="439" as="targetPoint"/>
                        <Array as="points">
                            <mxPoint x="200" y="414"/>
                            <mxPoint x="200" y="599"/>
                        </Array>
                    </mxGeometry>
                </mxCell>
                <mxCell id="30" value="YES" style="edgeLabel;resizable=0;html=1;align=center;verticalAlign=middle;" connectable="0" vertex="1" parent="29">
                    <mxGeometry relative="1" as="geometry"/>
                </mxCell>
                <mxCell id="32" value="&lt;span&gt;END fuction&lt;/span&gt;" style="ellipse;whiteSpace=wrap;html=1;" vertex="1" parent="1">
                    <mxGeometry x="280" y="969" width="120" height="80" as="geometry"/>
                </mxCell>
                <mxCell id="33" value="" style="endArrow=classic;html=1;entryX=1;entryY=0.5;entryDx=0;entryDy=0;exitX=1;exitY=0.5;exitDx=0;exitDy=0;" edge="1" parent="1" source="22" target="32">
                    <mxGeometry relative="1" as="geometry">
                        <mxPoint x="40" y="399" as="sourcePoint"/>
                        <mxPoint x="200" y="399" as="targetPoint"/>
                        <Array as="points">
                            <mxPoint x="500" y="414"/>
                            <mxPoint x="500" y="1009"/>
                        </Array>
                    </mxGeometry>
                </mxCell>
                <mxCell id="34" value="NO" style="edgeLabel;resizable=0;html=1;align=center;verticalAlign=middle;" connectable="0" vertex="1" parent="33">
                    <mxGeometry relative="1" as="geometry"/>
                </mxCell>
                <mxCell id="40" value="" style="endArrow=classic;html=1;exitX=0.5;exitY=1;exitDx=0;exitDy=0;" edge="1" parent="1" source="24" target="25">
                    <mxGeometry width="50" height="50" relative="1" as="geometry">
                        <mxPoint x="350" y="669" as="sourcePoint"/>
                        <mxPoint x="350" y="709" as="targetPoint"/>
                    </mxGeometry>
                </mxCell>
                <mxCell id="41" value="" style="endArrow=classic;html=1;exitX=0.5;exitY=1;exitDx=0;exitDy=0;" edge="1" parent="1" source="25">
                    <mxGeometry width="50" height="50" relative="1" as="geometry">
                        <mxPoint x="360" y="679" as="sourcePoint"/>
                        <mxPoint x="340" y="879" as="targetPoint"/>
                    </mxGeometry>
                </mxCell>
                <mxCell id="42" value="" style="endArrow=classic;html=1;exitX=0.5;exitY=1;exitDx=0;exitDy=0;entryX=0.5;entryY=0;entryDx=0;entryDy=0;" edge="1" parent="1" source="5" target="32">
                    <mxGeometry width="50" height="50" relative="1" as="geometry">
                        <mxPoint x="350" y="859" as="sourcePoint"/>
                        <mxPoint x="350" y="889" as="targetPoint"/>
                    </mxGeometry>
                </mxCell>
                <mxCell id="43" value="print array[i];" style="rounded=1;whiteSpace=wrap;html=1;" vertex="1" parent="1">
                    <mxGeometry x="610" y="560" width="120" height="60" as="geometry"/>
                </mxCell>
                <mxCell id="44" value="string array[];" style="rounded=1;whiteSpace=wrap;html=1;" vertex="1" parent="1">
                    <mxGeometry x="610" y="240" width="120" height="60" as="geometry"/>
                </mxCell>
                <mxCell id="45" value="&lt;span&gt;fuction &quot;PrintArray&quot;&lt;/span&gt;" style="ellipse;whiteSpace=wrap;html=1;" vertex="1" parent="1">
                    <mxGeometry x="610" y="110" width="120" height="80" as="geometry"/>
                </mxCell>
                <mxCell id="46" value="&lt;span style=&quot;font-family: &amp;#34;helvetica&amp;#34;&quot;&gt;FOR &lt;br&gt;(i=0, i&amp;lt;array.lenght, i++)&lt;/span&gt;" style="rhombus;whiteSpace=wrap;html=1;" vertex="1" parent="1">
                    <mxGeometry x="590" y="340" width="160" height="130" as="geometry"/>
                </mxCell>
                <mxCell id="50" value="" style="endArrow=classic;html=1;" edge="1" parent="1" source="45" target="44">
                    <mxGeometry relative="1" as="geometry">
                        <mxPoint x="669.76" y="210" as="sourcePoint"/>
                        <mxPoint x="669.76" y="240" as="targetPoint"/>
                        <Array as="points">
                            <mxPoint x="669.76" y="220"/>
                            <mxPoint x="669.76" y="230"/>
                        </Array>
                    </mxGeometry>
                </mxCell>
                <mxCell id="51" value="" style="endArrow=classic;html=1;exitX=0.5;exitY=1;exitDx=0;exitDy=0;" edge="1" parent="1" source="44" target="46">
                    <mxGeometry relative="1" as="geometry">
                        <mxPoint x="670" y="300" as="sourcePoint"/>
                        <mxPoint x="669.82" y="330" as="targetPoint"/>
                        <Array as="points">
                            <mxPoint x="669.76" y="310"/>
                            <mxPoint x="669.76" y="320"/>
                        </Array>
                    </mxGeometry>
                </mxCell>
                <mxCell id="54" value="&lt;span&gt;END fuction&lt;/span&gt;" style="ellipse;whiteSpace=wrap;html=1;" vertex="1" parent="1">
                    <mxGeometry x="610" y="699" width="120" height="80" as="geometry"/>
                </mxCell>
                <mxCell id="55" value="" style="endArrow=classic;html=1;entryX=1;entryY=0.5;entryDx=0;entryDy=0;exitX=1;exitY=0.5;exitDx=0;exitDy=0;" edge="1" parent="1" source="46" target="54">
                    <mxGeometry relative="1" as="geometry">
                        <mxPoint x="370" y="390" as="sourcePoint"/>
                        <mxPoint x="530" y="390" as="targetPoint"/>
                        <Array as="points">
                            <mxPoint x="790" y="405"/>
                            <mxPoint x="790" y="739"/>
                        </Array>
                    </mxGeometry>
                </mxCell>
                <mxCell id="56" value="NO" style="edgeLabel;resizable=0;html=1;align=center;verticalAlign=middle;" connectable="0" vertex="1" parent="55">
                    <mxGeometry relative="1" as="geometry"/>
                </mxCell>
                <mxCell id="62" value="" style="endArrow=classic;html=1;exitX=0.5;exitY=1;exitDx=0;exitDy=0;entryX=0.5;entryY=0;entryDx=0;entryDy=0;" edge="1" parent="1" source="43" target="54">
                    <mxGeometry width="50" height="50" relative="1" as="geometry">
                        <mxPoint x="680" y="850" as="sourcePoint"/>
                        <mxPoint x="680" y="880" as="targetPoint"/>
                    </mxGeometry>
                </mxCell>
                <mxCell id="63" value="" style="endArrow=classic;html=1;exitX=0.5;exitY=0;exitDx=0;exitDy=0;entryX=0.5;entryY=1;entryDx=0;entryDy=0;" edge="1" parent="1" source="23" target="22">
                    <mxGeometry relative="1" as="geometry">
                        <mxPoint x="250" y="670" as="sourcePoint"/>
                        <mxPoint x="350" y="670" as="targetPoint"/>
                    </mxGeometry>
                </mxCell>
                <mxCell id="64" value="NO" style="edgeLabel;resizable=0;html=1;align=center;verticalAlign=middle;" connectable="0" vertex="1" parent="63">
                    <mxGeometry relative="1" as="geometry"/>
                </mxCell>
                <mxCell id="65" value="" style="endArrow=classic;html=1;" edge="1" parent="1">
                    <mxGeometry relative="1" as="geometry">
                        <mxPoint x="340" y="660" as="sourcePoint"/>
                        <mxPoint x="340" y="700" as="targetPoint"/>
                    </mxGeometry>
                </mxCell>
                <mxCell id="66" value="YES" style="edgeLabel;resizable=0;html=1;align=center;verticalAlign=middle;" connectable="0" vertex="1" parent="65">
                    <mxGeometry relative="1" as="geometry"/>
                </mxCell>
                <mxCell id="67" value="" style="endArrow=classic;html=1;exitX=0.5;exitY=1;exitDx=0;exitDy=0;entryX=0.5;entryY=0;entryDx=0;entryDy=0;" edge="1" parent="1" source="46" target="43">
                    <mxGeometry relative="1" as="geometry">
                        <mxPoint x="350" y="669.9999999999998" as="sourcePoint"/>
                        <mxPoint x="350" y="709.9999999999998" as="targetPoint"/>
                    </mxGeometry>
                </mxCell>
                <mxCell id="68" value="YES" style="edgeLabel;resizable=0;html=1;align=center;verticalAlign=middle;" connectable="0" vertex="1" parent="67">
                    <mxGeometry relative="1" as="geometry"/>
                </mxCell>
            </root>
        </mxGraphModel>
    </diagram>
</mxfile>